<svg width="24" height="24" viewBox="0 0 24 24" fill="none" xmlns="http://www.w3.org/2000/svg">
<path d="M7.20001 0.5H16.8903L21.9 3.83884V18.4C21.9 18.9039 21.6998 19.3872 21.3435 19.7435C20.9872 20.0998 20.5039 20.3 20 20.3H19.2H18.7V20.8V21.6C18.7 22.1039 18.4998 22.5872 18.1435 22.9435C17.7872 23.2998 17.3039 23.5 16.8 23.5H4.00001C3.49609 23.5 3.01282 23.2998 2.6565 22.9435C2.30018 22.5872 2.10001 22.1039 2.10001 21.6V5.6C2.10001 5.09609 2.30018 4.61282 2.6565 4.2565C3.01282 3.90018 3.49609 3.7 4.00001 3.7H4.80001H5.30001V3.2V2.4C5.30001 1.89609 5.50018 1.41282 5.8565 1.0565C6.21282 0.700178 6.69609 0.5 7.20001 0.5ZM5.30001 4.8V4.3H4.80001H4.00001C3.65522 4.3 3.32456 4.43696 3.08077 4.68076C2.83697 4.92456 2.70001 5.25522 2.70001 5.6V21.6C2.70001 21.9448 2.83697 22.2754 3.08077 22.5192C3.32457 22.763 3.65523 22.9 4.00001 22.9H16.8C17.1448 22.9 17.4754 22.763 17.7192 22.5192C17.963 22.2754 18.1 21.9448 18.1 21.6V20.8V20.3H17.6H7.20001C6.69609 20.3 6.21282 20.0998 5.8565 19.7435C5.50018 19.3872 5.30001 18.9039 5.30001 18.4V4.8Z" fill="url(#paint0_linear_1_254)" stroke="url(#paint1_linear_1_254)"/>
<defs>
<linearGradient id="paint0_linear_1_254" x1="14.4762" y1="-2.28571" x2="-0.734058" y2="20.3877" gradientUnits="userSpaceOnUse">
<stop stop-color="#A3AFF1"/>
<stop offset="1" stop-color="#C5CEFF"/>
</linearGradient>
<linearGradient id="paint1_linear_1_254" x1="14.4762" y1="-2.28571" x2="-0.734058" y2="20.3877" gradientUnits="userSpaceOnUse">
<stop stop-color="#A3AFF1"/>
<stop offset="1" stop-color="#C5CEFF"/>
</linearGradient>
</defs>
</svg>
