<svg width="25" height="25" viewBox="0 0 25 25" fill="none" xmlns="http://www.w3.org/2000/svg">
<g clip-path="url(#clip0_71_9)">
<path d="M6.5 12.1067V18.5H12.8933L11.56 17.1667H7.83333V13.44L6.5 12.1067Z" fill="#C5CEFF"/>
<path d="M23.7467 22.0267L21.8333 20.0867V21.8333H3.16667V19.0667H4.5V18H3.16667V13.5667H4.5V12.5H3.16667V8.23333H4.5V7.16666H3.16667V3.43999L13.7933 14.0067V12.1267L2.97333 1.35999C2.88008 1.26597 2.76095 1.20185 2.63112 1.1758C2.50129 1.14976 2.36664 1.16297 2.24434 1.21374C2.12205 1.26452 2.01764 1.35057 1.94444 1.46092C1.87124 1.57126 1.83256 1.70091 1.83333 1.83332V22.5C1.83333 22.6768 1.90357 22.8464 2.02859 22.9714C2.15362 23.0964 2.32319 23.1667 2.5 23.1667H23.2733C23.4057 23.1674 23.5354 23.1287 23.6457 23.0555C23.7561 22.9823 23.8421 22.8779 23.8929 22.7556C23.9437 22.6334 23.9569 22.4987 23.9309 22.3689C23.9048 22.239 23.8407 22.1199 23.7467 22.0267Z" fill="#C5CEFF"/>
<path d="M16.5 20.5H19.1667C19.5203 20.5 19.8594 20.3595 20.1095 20.1095C20.3595 19.8594 20.5 19.5203 20.5 19.1667V6.3L18.9667 3.48C18.8481 3.27454 18.6768 3.10445 18.4706 2.98726C18.2643 2.87007 18.0305 2.81003 17.7933 2.81333C17.5508 2.81526 17.3133 2.88332 17.1066 3.01019C16.8998 3.13706 16.7316 3.31794 16.62 3.53333L15.1667 6.31333V19.1667C15.1667 19.5203 15.3071 19.8594 15.5572 20.1095C15.8072 20.3595 16.1464 20.5 16.5 20.5ZM16.5 6.63333L17.7933 4.12L19.1667 6.64V16.5H16.5V6.63333ZM16.5 17.5867H19.1667V19.2133H16.5V17.5867Z" fill="#C5CEFF"/>
</g>
<defs>
<clipPath id="clip0_71_9">
<rect width="24" height="24" fill="white" transform="translate(0.5 0.5)"/>
</clipPath>
</defs>
</svg>
