<svg width="24" height="24" viewBox="0 0 24 24" fill="none" xmlns="http://www.w3.org/2000/svg">
<path fill-rule="evenodd" clip-rule="evenodd" d="M4.80001 2.4C4.80001 1.76348 5.05286 1.15303 5.50295 0.702944C5.95304 0.252856 6.56349 0 7.20001 0L17.0416 0L22.4 3.5712V18.4C22.4 19.0365 22.1471 19.647 21.6971 20.0971C21.247 20.5471 20.6365 20.8 20 20.8H19.2V21.6C19.2 22.2365 18.9471 22.847 18.4971 23.2971C18.047 23.7471 17.4365 24 16.8 24H4.00001C3.36349 24 2.75304 23.7471 2.30295 23.2971C1.85286 22.847 1.60001 22.2365 1.60001 21.6V5.6C1.60001 4.96348 1.85286 4.35303 2.30295 3.90294C2.75304 3.45286 3.36349 3.2 4.00001 3.2H4.80001V2.4ZM4.80001 4.8H4.00001C3.78783 4.8 3.58435 4.88429 3.43432 5.03431C3.28429 5.18434 3.20001 5.38783 3.20001 5.6V21.6C3.20001 21.8122 3.28429 22.0157 3.43432 22.1657C3.58435 22.3157 3.78783 22.4 4.00001 22.4H16.8C17.0122 22.4 17.2157 22.3157 17.3657 22.1657C17.5157 22.0157 17.6 21.8122 17.6 21.6V20.8H7.20001C6.56349 20.8 5.95304 20.5471 5.50295 20.0971C5.05286 19.647 4.80001 19.0365 4.80001 18.4V4.8Z" fill="#C5CEFF"/>
</svg>
