<svg width="25" height="24" viewBox="0 0 25 24" fill="none" xmlns="http://www.w3.org/2000/svg">
<path d="M7.33333 16.6667V17.1667H7.83333H11.3529L11.6862 17.5H7V12.8138L7.33333 13.1471V16.6667Z" stroke="url(#paint0_linear_1_270)"/>
<path d="M23.3907 21.8778L23.3906 21.8778L23.3946 21.8817C23.4181 21.905 23.4341 21.9348 23.4406 21.9672C23.4471 21.9997 23.4438 22.0333 23.4311 22.0639C23.4184 22.0945 23.3969 22.1206 23.3693 22.1389C23.3418 22.1572 23.3093 22.1669 23.2762 22.1667H23.2733H2.5C2.4558 22.1667 2.4134 22.1491 2.38215 22.1178L2.02859 22.4714L2.38215 22.1178C2.35089 22.0866 2.33333 22.0442 2.33333 22V1.33332H2.33334L2.33332 1.33042C2.33313 1.29731 2.3428 1.2649 2.3611 1.23731C2.3794 1.20973 2.4055 1.18822 2.43608 1.17552C2.46665 1.16283 2.50031 1.15953 2.53277 1.16604C2.56523 1.17255 2.59501 1.18858 2.61832 1.21208L2.61832 1.21209L2.62065 1.21442L13.2933 11.8345V12.3044L3.51922 2.58544L2.66667 1.7377V2.93999V6.66666V7.16666H3.16667H4V7.23333H3.16667H2.66667V7.73333V12V12.5H3.16667H4V12.5667H3.16667H2.66667V13.0667V17.5V18H3.16667H4V18.0667H3.16667H2.66667V18.5667V21.3333V21.8333H3.16667H21.8333H22.3333V21.3333V20.8057L23.3907 21.8778Z" stroke="url(#paint1_linear_1_270)"/>
<path d="M17.6375 2.83007L17.3487 3.39122L16.0554 5.90455L16 6.01223V6.13333V16V16.5H16.5H19.1667H19.6667V16V6.14V6.0126L19.6057 5.90073L18.2324 3.38073L17.9275 2.82126C18.0313 2.83579 18.1318 2.86984 18.2236 2.92199C18.3508 2.99431 18.4568 3.09886 18.5308 3.22509L20 5.92714V18.6667C20 18.8877 19.9122 19.0996 19.7559 19.2559C19.5996 19.4122 19.3877 19.5 19.1667 19.5H16.5C16.279 19.5 16.067 19.4122 15.9107 19.2559C15.7545 19.0996 15.6667 18.8877 15.6667 18.6667V5.93614L17.0631 3.26498L17.0631 3.26498L17.064 3.26332C17.1337 3.12869 17.2388 3.01565 17.3681 2.93635C17.4513 2.88526 17.5426 2.84942 17.6375 2.83007ZM16.5 16.5867H16V17.0867V18.7133V19.2133H16.5H19.1667H19.6667V18.7133V17.0867V16.5867H19.1667H16.5Z" stroke="url(#paint2_linear_1_270)"/>
<path d="M17.5 3L16 6V16H19.5V6L17.5 3Z" fill="url(#paint3_linear_1_270)"/>
<defs>
<linearGradient id="paint0_linear_1_270" x1="10.4578" y1="10.9978" x2="6.65222" y2="17.5433" gradientUnits="userSpaceOnUse">
<stop stop-color="#A3AFF1"/>
<stop offset="1" stop-color="#C5CEFF"/>
</linearGradient>
<linearGradient id="paint1_linear_1_270" x1="15.5208" y1="-1.43283" x2="2.45467" y2="21.1499" gradientUnits="userSpaceOnUse">
<stop stop-color="#A3AFF1"/>
<stop offset="1" stop-color="#C5CEFF"/>
</linearGradient>
<linearGradient id="paint2_linear_1_270" x1="18.4683" y1="0.628745" x2="8.56571" y2="5.76474" gradientUnits="userSpaceOnUse">
<stop stop-color="#A3AFF1"/>
<stop offset="1" stop-color="#C5CEFF"/>
</linearGradient>
<linearGradient id="paint3_linear_1_270" x1="18.1667" y1="1.7619" x2="11.3762" y2="4.90643" gradientUnits="userSpaceOnUse">
<stop stop-color="#A3AFF1"/>
<stop offset="1" stop-color="#C5CEFF"/>
</linearGradient>
</defs>
</svg>
