<svg width="24" height="24" viewBox="0 0 24 24" fill="none" xmlns="http://www.w3.org/2000/svg">
<path d="M18.5 20.247V16C18.5 16 16 14.5 12 14.5C8 14.5 5.5 16 5.5 16V20.247M1.5 12C1.5 6.201 6.201 1.5 12 1.5C17.799 1.5 22.5 6.201 22.5 12C22.5 17.799 17.799 22.5 12 22.5C6.201 22.5 1.5 17.799 1.5 12ZM11.926 12.5C11.926 12.5 8.5 10.68 8.5 8C8.5 6.067 10.069 4.5 12.004 4.5C12.4635 4.49987 12.9185 4.59034 13.3429 4.76623C13.7674 4.94213 14.153 5.19999 14.4778 5.52507C14.8025 5.85016 15.0599 6.23608 15.2353 6.66075C15.4107 7.08543 15.5007 7.54053 15.5 8C15.5 10.68 12.074 12.5 12.074 12.5H11.926Z" fill="#232E55"/>
<path d="M18.5 20.247V16C18.5 16 16 14.5 12 14.5C8 14.5 5.5 16 5.5 16V20.247M1.5 12C1.5 6.201 6.201 1.5 12 1.5C17.799 1.5 22.5 6.201 22.5 12C22.5 17.799 17.799 22.5 12 22.5C6.201 22.5 1.5 17.799 1.5 12ZM11.926 12.5C11.926 12.5 8.5 10.68 8.5 8C8.5 6.067 10.069 4.5 12.004 4.5C12.4635 4.49987 12.9185 4.59034 13.3429 4.76623C13.7674 4.94212 14.153 5.19999 14.4778 5.52507C14.8025 5.85016 15.0599 6.23608 15.2353 6.66075C15.4107 7.08543 15.5007 7.54053 15.5 8C15.5 10.68 12.074 12.5 12.074 12.5H11.926Z" stroke="url(#paint0_linear_1_247)" stroke-width="1.3"/>
<path d="M9.5 6C7.1 8.4 10.1667 11.3333 12 12.5C16.4 9.3 15.5 6.83333 14.5 6C13.8333 5 11.9 3.6 9.5 6Z" fill="url(#paint1_linear_1_247)"/>
<path d="M5.49999 20V16C11.5 13 18 16 18.5 16C18.9 16 18.6667 18.6667 18.5 20C12.9 24 7.49999 21.6667 5.49999 20Z" fill="url(#paint2_linear_1_247)"/>
<defs>
<linearGradient id="paint0_linear_1_247" x1="14.5" y1="-0.500001" x2="2" y2="21" gradientUnits="userSpaceOnUse">
<stop stop-color="#A3AFF1"/>
<stop offset="1" stop-color="#C5CEFF"/>
</linearGradient>
<linearGradient id="paint1_linear_1_247" x1="13.6843" y1="3.00495" x2="2.06954" y2="18.0684" gradientUnits="userSpaceOnUse">
<stop stop-color="#A3AFF1"/>
<stop offset="1" stop-color="#C5CEFF"/>
</linearGradient>
<linearGradient id="paint2_linear_1_247" x1="13.6843" y1="3.00495" x2="2.06954" y2="18.0684" gradientUnits="userSpaceOnUse">
<stop stop-color="#A3AFF1"/>
<stop offset="1" stop-color="#C5CEFF"/>
</linearGradient>
</defs>
</svg>
