<svg width="24" height="25" viewBox="0 0 24 25" fill="none" xmlns="http://www.w3.org/2000/svg">
<path d="M18.5 20.747V16.5C18.5 16.5 16 15 12 15C8 15 5.5 16.5 5.5 16.5V20.747M1.5 12.5C1.5 6.701 6.201 2 12 2C17.799 2 22.5 6.701 22.5 12.5C22.5 18.299 17.799 23 12 23C6.201 23 1.5 18.299 1.5 12.5ZM11.926 13C11.926 13 8.5 11.18 8.5 8.5C8.5 6.567 10.069 5 12.004 5C12.4635 4.99987 12.9185 5.09034 13.3429 5.26623C13.7674 5.44212 14.153 5.69999 14.4778 6.02507C14.8025 6.35016 15.0599 6.73608 15.2353 7.16075C15.4107 7.58543 15.5007 8.04053 15.5 8.5C15.5 11.18 12.074 13 12.074 13H11.926Z" stroke="#C5CEFF" stroke-width="1.3"/>
</svg>
